<svg width="411" height="823" viewBox="0 0 411 823" fill="none" xmlns="http://www.w3.org/2000/svg">
<g clip-path="url(#clip0_36_2)">
<rect width="411" height="823" fill="#F4F4F4"/>
<path fill-rule="evenodd" clip-rule="evenodd" d="M-7 533L-2.1171 527.157C2.76581 520.339 12.5316 508.652 23.274 505.73C33.0398 503.783 42.8056 512.548 52.5714 501.835C62.3372 492.096 72.103 462.878 82.8454 456.061C92.6112 450.217 102.377 466.774 112.143 470.67C121.909 474.565 131.674 466.774 142.417 472.617C152.183 479.435 161.948 499.887 171.714 503.783C181.48 508.652 191.246 495.991 201.988 481.383C211.754 466.774 221.52 450.217 231.286 450.217C241.052 450.217 250.817 466.774 261.56 466.774C271.326 466.774 281.091 450.217 290.857 448.27C300.623 446.322 310.389 458.009 321.131 466.774C330.897 474.565 340.663 479.435 350.429 485.278C360.194 492.096 369.96 499.887 380.703 505.73C390.468 512.548 400.234 516.443 405.117 518.391L410 520.339V421H405.117C400.234 421 390.468 421 380.703 421C369.96 421 360.194 421 350.429 421C340.663 421 330.897 421 321.131 421C310.389 421 300.623 421 290.857 421C281.091 421 271.326 421 261.56 421C250.817 421 241.052 421 231.286 421C221.52 421 211.754 421 201.988 421C191.246 421 181.48 421 171.714 421C161.948 421 152.183 421 142.417 421C131.674 421 121.909 421 112.143 421C102.377 421 92.6112 421 82.8454 421C72.103 421 62.3372 421 52.5714 421C42.8056 421 33.0398 421 23.274 421C12.5316 421 2.76581 421 -2.1171 421H-7V533Z" fill="#FF0000" fill-opacity="0.24"/>
<path fill-rule="evenodd" clip-rule="evenodd" d="M-6 514L-1.1171 508.157C3.76581 501.339 13.5316 489.652 24.274 486.73C34.0398 484.783 43.8056 493.548 53.5714 482.835C63.3372 473.096 73.103 443.878 83.8454 437.061C93.6112 431.217 103.377 447.774 113.143 451.67C122.909 455.565 132.674 447.774 143.417 453.617C153.183 460.435 162.948 480.887 172.714 484.783C182.48 489.652 192.246 476.991 202.988 462.383C212.754 447.774 222.52 431.217 232.286 431.217C242.052 431.217 251.817 447.774 262.56 447.774C272.326 447.774 282.091 431.217 291.857 429.27C301.623 427.322 311.389 439.009 322.131 447.774C331.897 455.565 341.663 460.435 351.429 466.278C361.194 473.096 370.96 480.887 381.703 486.73C391.468 493.548 401.234 497.443 406.117 499.391L411 501.339V402H406.117C401.234 402 391.468 402 381.703 402C370.96 402 361.194 402 351.429 402C341.663 402 331.897 402 322.131 402C311.389 402 301.623 402 291.857 402C282.091 402 272.326 402 262.56 402C251.817 402 242.052 402 232.286 402C222.52 402 212.754 402 202.988 402C192.246 402 182.48 402 172.714 402C162.948 402 153.183 402 143.417 402C132.674 402 122.909 402 113.143 402C103.377 402 93.6112 402 83.8454 402C73.103 402 63.3372 402 53.5714 402C43.8056 402 34.0398 402 24.274 402C13.5316 402 3.76581 402 -1.1171 402H-6V514Z" fill="#FA3343"/>
<rect x="-7" width="425" height="407" fill="#FA3343"/>
</g>
<defs>
<clipPath id="clip0_36_2">
<rect width="411" height="823" fill="white"/>
</clipPath>
</defs>
</svg>
